<svg width="960" height="540" viewBox="0 0 960 540" xmlns="http://www.w3.org/2000/svg" role="img" aria-labelledby="title desc">
  <title id="title">Course du canal du Midi</title>
  <desc id="desc">Illustration stylisée d'une personne courant le long d'un canal bordé d'arbres à Toulouse.</desc>
  <defs>
    <linearGradient id="sky" x1="0%" y1="0%" x2="0%" y2="100%">
      <stop offset="0%" stop-color="#6bd5ff" />
      <stop offset="100%" stop-color="#d9f2ff" />
    </linearGradient>
    <linearGradient id="water" x1="0%" y1="0%" x2="100%" y2="0%">
      <stop offset="0%" stop-color="#6ad0ff" />
      <stop offset="100%" stop-color="#2284f7" />
    </linearGradient>
    <linearGradient id="path" x1="0%" y1="0%" x2="0%" y2="100%">
      <stop offset="0%" stop-color="#f9d58c" />
      <stop offset="100%" stop-color="#f1b157" />
    </linearGradient>
    <linearGradient id="runner-shirt" x1="0%" y1="0%" x2="100%" y2="100%">
      <stop offset="0%" stop-color="#ff5d7d" />
      <stop offset="100%" stop-color="#f7003c" />
    </linearGradient>
    <linearGradient id="runner-shorts" x1="0%" y1="0%" x2="100%" y2="100%">
      <stop offset="0%" stop-color="#262d69" />
      <stop offset="100%" stop-color="#0f173f" />
    </linearGradient>
    <linearGradient id="tree" x1="0%" y1="0%" x2="100%" y2="100%">
      <stop offset="0%" stop-color="#4cb572" />
      <stop offset="100%" stop-color="#1d7a38" />
    </linearGradient>
    <radialGradient id="sun" cx="50%" cy="50%" r="50%">
      <stop offset="0%" stop-color="#fff2a1" />
      <stop offset="100%" stop-color="#ffcf33" />
    </radialGradient>
    <filter id="shadow" x="-20%" y="-20%" width="140%" height="140%">
      <feGaussianBlur in="SourceAlpha" stdDeviation="8" />
      <feOffset dx="0" dy="6" result="offsetblur" />
      <feComponentTransfer>
        <feFuncA type="linear" slope="0.25" />
      </feComponentTransfer>
      <feMerge>
        <feMergeNode />
        <feMergeNode in="SourceGraphic" />
      </feMerge>
    </filter>
  </defs>
  <rect width="960" height="540" fill="url(#sky)" />
  <g opacity="0.4" fill="#ffffff">
    <ellipse cx="150" cy="120" rx="120" ry="35" />
    <ellipse cx="400" cy="90" rx="140" ry="40" />
    <ellipse cx="700" cy="110" rx="150" ry="38" />
  </g>
  <circle cx="820" cy="120" r="55" fill="url(#sun)" opacity="0.85" />
  <path d="M0,360 C180,330 320,340 480,360 C660,382 780,370 960,340 L960,540 L0,540 Z" fill="url(#water)" />
  <path d="M0,330 C210,310 340,320 520,340 C720,365 820,350 960,310 L960,360 C800,400 640,412 480,390 C320,368 160,370 0,392 Z" fill="#3fb0e7" opacity="0.75" />
  <path d="M0,340 C220,295 420,300 620,325 C780,346 880,340 960,320 L960,540 L0,540 Z" fill="#62c5f2" opacity="0.35" />
  <path d="M0,320 C140,300 260,290 400,310 C540,330 650,320 820,300 C880,293 920,292 960,294 L960,540 L0,540 Z" fill="#8ed9ff" opacity="0.2" />
  <path d="M0,400 L960,400 L960,540 L0,540 Z" fill="#f0efe8" />
  <path d="M0,400 C200,360 360,350 520,370 C720,395 820,380 960,340 L960,540 L0,540 Z" fill="url(#path)" />
  <g filter="url(#shadow)">
    <path d="M340,420 C420,400 480,395 560,410 C600,418 640,420 700,415 L700,440 C640,450 580,448 520,438 C460,428 400,430 340,442 Z" fill="#d68a44" opacity="0.6" />
  </g>
  <g>
    <g transform="translate(170 195) scale(1.15)">
      <path d="M120 110 C132 100 140 92 146 80 C154 64 158 46 158 26" stroke="#1f3f7a" stroke-width="10" stroke-linecap="round" fill="none" />
      <path d="M110 140 C130 150 148 160 168 162 C182 164 200 160 216 150" stroke="#162c59" stroke-width="12" stroke-linecap="round" fill="none" />
    </g>
    <g transform="translate(220 180) scale(1.1)">
      <path d="M120 160 C122 142 118 128 110 110" stroke="#0f173f" stroke-width="14" stroke-linecap="round" fill="none" />
      <path d="M108 110 C94 80 94 60 102 40" stroke="#0f173f" stroke-width="14" stroke-linecap="round" fill="none" />
      <path d="M146 120 C158 142 170 154 190 160" stroke="#0f173f" stroke-width="14" stroke-linecap="round" fill="none" />
    </g>
    <g transform="translate(320 120)">
      <path d="M100 260 C120 220 140 200 160 190 C175 182 186 180 200 182 C220 184 236 200 252 220" stroke="#0f173f" stroke-width="18" stroke-linecap="round" fill="none" />
    </g>
  </g>
  <g transform="translate(360 150)">
    <path d="M120 120 C116 144 118 162 126 188 C134 214 144 228 156 248 C164 260 170 276 174 296 C178 314 180 330 178 350 L150 350 C148 326 140 304 128 282 C116 260 102 234 94 208 C84 176 82 140 90 110 C96 86 108 70 128 60 C140 54 152 52 166 54 C182 56 196 64 206 78 C214 90 216 104 214 116 L186 116 C186 106 182 98 176 92 C170 86 160 84 150 84 C140 84 132 88 126 94 C122 100 120 108 120 120 Z" fill="url(#runner-shirt)" />
    <path d="M174 296 C206 318 234 332 270 332 C292 332 310 328 330 320 L336 344 C320 354 300 362 274 366 C236 372 202 362 166 340 Z" fill="url(#runner-shorts)" />
    <path d="M150 350 C162 378 170 402 172 430 C174 456 170 480 162 508 L132 504 C138 476 136 450 126 420 C120 400 110 378 100 358 Z" fill="#0f173f" />
    <path d="M270 332 C296 352 312 372 324 400 C330 416 334 434 334 452 L306 456 C304 438 298 422 286 406 C272 388 254 372 232 358 Z" fill="#0f173f" />
    <path d="M118 110 C116 94 122 80 132 70 C144 58 160 54 176 56 C192 58 206 66 216 78 C226 90 232 106 230 122 L202 120 C204 110 202 100 196 94 C190 88 182 84 172 84 C162 84 154 88 148 94 C142 102 138 110 138 120 Z" fill="#ffd2c3" />
    <path d="M132 70 C140 52 158 40 182 40 C204 40 224 52 236 72 C248 94 252 118 246 146 L220 142 C224 122 222 104 214 92 C206 80 194 74 180 74 C166 74 156 80 148 92 Z" fill="#1f3f7a" />
  </g>
  <g transform="translate(60 220)">
    <g transform="translate(0 0) scale(1.2)">
      <rect x="180" y="40" width="24" height="160" fill="#8b5a2b" />
      <circle cx="192" cy="32" r="60" fill="url(#tree)" />
    </g>
    <g transform="translate(180 -30) scale(1)">
      <rect x="180" y="40" width="24" height="160" fill="#8b5a2b" />
      <circle cx="192" cy="32" r="60" fill="url(#tree)" />
    </g>
    <g transform="translate(360 -50) scale(0.9)">
      <rect x="180" y="40" width="24" height="160" fill="#8b5a2b" />
      <circle cx="192" cy="32" r="60" fill="url(#tree)" />
    </g>
    <g transform="translate(520 -70) scale(0.8)">
      <rect x="180" y="40" width="24" height="160" fill="#8b5a2b" />
      <circle cx="192" cy="32" r="60" fill="url(#tree)" />
    </g>
    <g transform="translate(680 -90) scale(0.7)">
      <rect x="180" y="40" width="24" height="160" fill="#8b5a2b" />
      <circle cx="192" cy="32" r="60" fill="url(#tree)" />
    </g>
  </g>
  <g transform="translate(80 420)">
    <path d="M80 0 C140 -6 200 -4 260 8 C320 20 360 22 420 16 C460 12 500 6 540 4 C588 2 628 6 660 18 L660 44 C624 32 584 28 540 30 C500 32 456 38 408 44 C352 52 300 48 240 34 C180 20 128 12 80 20 Z" fill="#f5bf72" opacity="0.6" />
    <path d="M80 16 C136 18 192 30 248 52 C304 74 352 82 408 78 C456 74 508 60 564 48 C616 38 660 36 700 42 L700 62 C660 52 616 56 564 68 C508 80 456 96 408 100 C352 104 300 94 248 70 C194 46 138 32 80 32 Z" fill="#f3a552" opacity="0.4" />
  </g>
</svg>
